<mxfile host="app.diagrams.net" agent="Mozilla/5.0 (Windows NT 10.0; Win64; x64) AppleWebKit/537.36 (KHTML, like Gecko) Chrome/131.0.0.0 Safari/537.36" version="25.0.3">
  <diagram name="Страница — 1" id="fhzlhYlXpL9iAS1ZLUvb">
    <mxGraphModel dx="1262" dy="708" grid="1" gridSize="10" guides="1" tooltips="1" connect="1" arrows="1" fold="1" page="1" pageScale="1" pageWidth="827" pageHeight="1169" math="0" shadow="0">
      <root>
        <mxCell id="0" />
        <mxCell id="1" parent="0" />
        <mxCell id="PBnWE2JTwn_oXoJihTIQ-2" value="&lt;font style=&quot;font-size: 14px;&quot;&gt;GET berizaryad.ru/postamats/{postamat_id}&lt;/font&gt;&lt;div&gt;&lt;font style=&quot;font-size: 14px;&quot;&gt;Получение количества повербанков по идентификатору&lt;/font&gt;&lt;/div&gt;" style="text;html=1;align=center;verticalAlign=middle;whiteSpace=wrap;rounded=0;" parent="1" vertex="1">
          <mxGeometry x="40" y="50" width="400" height="30" as="geometry" />
        </mxCell>
        <mxCell id="PBnWE2JTwn_oXoJihTIQ-3" value="" style="shape=table;startSize=0;container=1;collapsible=0;childLayout=tableLayout;" parent="1" vertex="1">
          <mxGeometry x="40" y="120" width="490" height="80" as="geometry" />
        </mxCell>
        <mxCell id="PBnWE2JTwn_oXoJihTIQ-4" value="" style="shape=tableRow;horizontal=0;startSize=0;swimlaneHead=0;swimlaneBody=0;strokeColor=inherit;top=0;left=0;bottom=0;right=0;collapsible=0;dropTarget=0;fillColor=none;points=[[0,0.5],[1,0.5]];portConstraint=eastwest;" parent="PBnWE2JTwn_oXoJihTIQ-3" vertex="1">
          <mxGeometry width="490" height="40" as="geometry" />
        </mxCell>
        <mxCell id="PBnWE2JTwn_oXoJihTIQ-5" value="Название параметра" style="shape=partialRectangle;html=1;whiteSpace=wrap;connectable=0;strokeColor=inherit;overflow=hidden;fillColor=none;top=0;left=0;bottom=0;right=0;pointerEvents=1;" parent="PBnWE2JTwn_oXoJihTIQ-4" vertex="1">
          <mxGeometry width="120" height="40" as="geometry">
            <mxRectangle width="120" height="40" as="alternateBounds" />
          </mxGeometry>
        </mxCell>
        <mxCell id="PBnWE2JTwn_oXoJihTIQ-6" value="Тип данных" style="shape=partialRectangle;html=1;whiteSpace=wrap;connectable=0;strokeColor=inherit;overflow=hidden;fillColor=none;top=0;left=0;bottom=0;right=0;pointerEvents=1;" parent="PBnWE2JTwn_oXoJihTIQ-4" vertex="1">
          <mxGeometry x="120" width="70" height="40" as="geometry">
            <mxRectangle width="70" height="40" as="alternateBounds" />
          </mxGeometry>
        </mxCell>
        <mxCell id="PBnWE2JTwn_oXoJihTIQ-7" value="Описание" style="shape=partialRectangle;html=1;whiteSpace=wrap;connectable=0;strokeColor=inherit;overflow=hidden;fillColor=none;top=0;left=0;bottom=0;right=0;pointerEvents=1;" parent="PBnWE2JTwn_oXoJihTIQ-4" vertex="1">
          <mxGeometry x="190" width="150" height="40" as="geometry">
            <mxRectangle width="150" height="40" as="alternateBounds" />
          </mxGeometry>
        </mxCell>
        <mxCell id="PBnWE2JTwn_oXoJihTIQ-8" value="Обязательность параметра" style="shape=partialRectangle;html=1;whiteSpace=wrap;connectable=0;strokeColor=inherit;overflow=hidden;fillColor=none;top=0;left=0;bottom=0;right=0;pointerEvents=1;" parent="PBnWE2JTwn_oXoJihTIQ-4" vertex="1">
          <mxGeometry x="340" width="150" height="40" as="geometry">
            <mxRectangle width="150" height="40" as="alternateBounds" />
          </mxGeometry>
        </mxCell>
        <mxCell id="PBnWE2JTwn_oXoJihTIQ-9" value="" style="shape=tableRow;horizontal=0;startSize=0;swimlaneHead=0;swimlaneBody=0;strokeColor=inherit;top=0;left=0;bottom=0;right=0;collapsible=0;dropTarget=0;fillColor=none;points=[[0,0.5],[1,0.5]];portConstraint=eastwest;" parent="PBnWE2JTwn_oXoJihTIQ-3" vertex="1">
          <mxGeometry y="40" width="490" height="40" as="geometry" />
        </mxCell>
        <mxCell id="PBnWE2JTwn_oXoJihTIQ-10" value="postamat_id" style="shape=partialRectangle;html=1;whiteSpace=wrap;connectable=0;strokeColor=inherit;overflow=hidden;fillColor=none;top=0;left=0;bottom=0;right=0;pointerEvents=1;" parent="PBnWE2JTwn_oXoJihTIQ-9" vertex="1">
          <mxGeometry width="120" height="40" as="geometry">
            <mxRectangle width="120" height="40" as="alternateBounds" />
          </mxGeometry>
        </mxCell>
        <mxCell id="PBnWE2JTwn_oXoJihTIQ-11" value="int" style="shape=partialRectangle;html=1;whiteSpace=wrap;connectable=0;strokeColor=inherit;overflow=hidden;fillColor=none;top=0;left=0;bottom=0;right=0;pointerEvents=1;" parent="PBnWE2JTwn_oXoJihTIQ-9" vertex="1">
          <mxGeometry x="120" width="70" height="40" as="geometry">
            <mxRectangle width="70" height="40" as="alternateBounds" />
          </mxGeometry>
        </mxCell>
        <mxCell id="PBnWE2JTwn_oXoJihTIQ-12" value="&lt;div style=&quot;text-align: left;&quot;&gt;&lt;span style=&quot;background-color: initial;&quot;&gt;идентификатор постамата (&lt;/span&gt;&lt;font face=&quot;YS Text, -apple-system, BlinkMacSystemFont, Arial, Helvetica, sans-serif&quot; color=&quot;#333333&quot;&gt;&lt;span style=&quot;font-size: 13px; background-color: rgb(255, 255, 255);&quot;&gt;path&lt;/span&gt;&lt;/font&gt;&lt;span style=&quot;background-color: initial;&quot;&gt;&amp;nbsp;parametr)&lt;/span&gt;&lt;/div&gt;" style="shape=partialRectangle;html=1;whiteSpace=wrap;connectable=0;strokeColor=inherit;overflow=hidden;fillColor=none;top=0;left=0;bottom=0;right=0;pointerEvents=1;" parent="PBnWE2JTwn_oXoJihTIQ-9" vertex="1">
          <mxGeometry x="190" width="150" height="40" as="geometry">
            <mxRectangle width="150" height="40" as="alternateBounds" />
          </mxGeometry>
        </mxCell>
        <mxCell id="PBnWE2JTwn_oXoJihTIQ-13" value="да" style="shape=partialRectangle;html=1;whiteSpace=wrap;connectable=0;strokeColor=inherit;overflow=hidden;fillColor=none;top=0;left=0;bottom=0;right=0;pointerEvents=1;" parent="PBnWE2JTwn_oXoJihTIQ-9" vertex="1">
          <mxGeometry x="340" width="150" height="40" as="geometry">
            <mxRectangle width="150" height="40" as="alternateBounds" />
          </mxGeometry>
        </mxCell>
        <mxCell id="PBnWE2JTwn_oXoJihTIQ-14" value="Request&amp;nbsp;" style="text;html=1;align=center;verticalAlign=middle;resizable=0;points=[];autosize=1;strokeColor=none;fillColor=none;" parent="1" vertex="1">
          <mxGeometry x="30" y="90" width="70" height="30" as="geometry" />
        </mxCell>
        <mxCell id="PBnWE2JTwn_oXoJihTIQ-15" value="Response&amp;nbsp;" style="text;html=1;align=center;verticalAlign=middle;resizable=0;points=[];autosize=1;strokeColor=none;fillColor=none;" parent="1" vertex="1">
          <mxGeometry x="30" y="250" width="80" height="30" as="geometry" />
        </mxCell>
        <mxCell id="PBnWE2JTwn_oXoJihTIQ-16" value="" style="shape=table;startSize=0;container=1;collapsible=0;childLayout=tableLayout;" parent="1" vertex="1">
          <mxGeometry x="40" y="280" width="490" height="340" as="geometry" />
        </mxCell>
        <mxCell id="PBnWE2JTwn_oXoJihTIQ-17" value="" style="shape=tableRow;horizontal=0;startSize=0;swimlaneHead=0;swimlaneBody=0;strokeColor=inherit;top=0;left=0;bottom=0;right=0;collapsible=0;dropTarget=0;fillColor=none;points=[[0,0.5],[1,0.5]];portConstraint=eastwest;" parent="PBnWE2JTwn_oXoJihTIQ-16" vertex="1">
          <mxGeometry width="490" height="40" as="geometry" />
        </mxCell>
        <mxCell id="PBnWE2JTwn_oXoJihTIQ-18" value="Название параметра" style="shape=partialRectangle;html=1;whiteSpace=wrap;connectable=0;strokeColor=inherit;overflow=hidden;fillColor=none;top=0;left=0;bottom=0;right=0;pointerEvents=1;" parent="PBnWE2JTwn_oXoJihTIQ-17" vertex="1">
          <mxGeometry width="120" height="40" as="geometry">
            <mxRectangle width="120" height="40" as="alternateBounds" />
          </mxGeometry>
        </mxCell>
        <mxCell id="PBnWE2JTwn_oXoJihTIQ-19" value="Тип данных&amp;nbsp;" style="shape=partialRectangle;html=1;whiteSpace=wrap;connectable=0;strokeColor=inherit;overflow=hidden;fillColor=none;top=0;left=0;bottom=0;right=0;pointerEvents=1;" parent="PBnWE2JTwn_oXoJihTIQ-17" vertex="1">
          <mxGeometry x="120" width="80" height="40" as="geometry">
            <mxRectangle width="80" height="40" as="alternateBounds" />
          </mxGeometry>
        </mxCell>
        <mxCell id="PBnWE2JTwn_oXoJihTIQ-20" value="Описание&amp;nbsp;" style="shape=partialRectangle;html=1;whiteSpace=wrap;connectable=0;strokeColor=inherit;overflow=hidden;fillColor=none;top=0;left=0;bottom=0;right=0;pointerEvents=1;" parent="PBnWE2JTwn_oXoJihTIQ-17" vertex="1">
          <mxGeometry x="200" width="130" height="40" as="geometry">
            <mxRectangle width="130" height="40" as="alternateBounds" />
          </mxGeometry>
        </mxCell>
        <mxCell id="PBnWE2JTwn_oXoJihTIQ-21" value="Обязательность параметра" style="shape=partialRectangle;html=1;whiteSpace=wrap;connectable=0;strokeColor=inherit;overflow=hidden;fillColor=none;top=0;left=0;bottom=0;right=0;pointerEvents=1;" parent="PBnWE2JTwn_oXoJihTIQ-17" vertex="1">
          <mxGeometry x="330" width="160" height="40" as="geometry">
            <mxRectangle width="160" height="40" as="alternateBounds" />
          </mxGeometry>
        </mxCell>
        <mxCell id="PBnWE2JTwn_oXoJihTIQ-22" value="" style="shape=tableRow;horizontal=0;startSize=0;swimlaneHead=0;swimlaneBody=0;strokeColor=inherit;top=0;left=0;bottom=0;right=0;collapsible=0;dropTarget=0;fillColor=none;points=[[0,0.5],[1,0.5]];portConstraint=eastwest;" parent="PBnWE2JTwn_oXoJihTIQ-16" vertex="1">
          <mxGeometry y="40" width="490" height="50" as="geometry" />
        </mxCell>
        <mxCell id="PBnWE2JTwn_oXoJihTIQ-23" value="count_power" style="shape=partialRectangle;html=1;whiteSpace=wrap;connectable=0;strokeColor=inherit;overflow=hidden;fillColor=none;top=0;left=0;bottom=0;right=0;pointerEvents=1;" parent="PBnWE2JTwn_oXoJihTIQ-22" vertex="1">
          <mxGeometry width="120" height="50" as="geometry">
            <mxRectangle width="120" height="50" as="alternateBounds" />
          </mxGeometry>
        </mxCell>
        <mxCell id="PBnWE2JTwn_oXoJihTIQ-24" value="int" style="shape=partialRectangle;html=1;whiteSpace=wrap;connectable=0;strokeColor=inherit;overflow=hidden;fillColor=none;top=0;left=0;bottom=0;right=0;pointerEvents=1;" parent="PBnWE2JTwn_oXoJihTIQ-22" vertex="1">
          <mxGeometry x="120" width="80" height="50" as="geometry">
            <mxRectangle width="80" height="50" as="alternateBounds" />
          </mxGeometry>
        </mxCell>
        <mxCell id="PBnWE2JTwn_oXoJihTIQ-25" value="количество повербанков в постамате (body)" style="shape=partialRectangle;html=1;whiteSpace=wrap;connectable=0;strokeColor=inherit;overflow=hidden;fillColor=none;top=0;left=0;bottom=0;right=0;pointerEvents=1;" parent="PBnWE2JTwn_oXoJihTIQ-22" vertex="1">
          <mxGeometry x="200" width="130" height="50" as="geometry">
            <mxRectangle width="130" height="50" as="alternateBounds" />
          </mxGeometry>
        </mxCell>
        <mxCell id="PBnWE2JTwn_oXoJihTIQ-26" value="да" style="shape=partialRectangle;html=1;whiteSpace=wrap;connectable=0;strokeColor=inherit;overflow=hidden;fillColor=none;top=0;left=0;bottom=0;right=0;pointerEvents=1;" parent="PBnWE2JTwn_oXoJihTIQ-22" vertex="1">
          <mxGeometry x="330" width="160" height="50" as="geometry">
            <mxRectangle width="160" height="50" as="alternateBounds" />
          </mxGeometry>
        </mxCell>
        <mxCell id="PBnWE2JTwn_oXoJihTIQ-27" value="" style="shape=tableRow;horizontal=0;startSize=0;swimlaneHead=0;swimlaneBody=0;strokeColor=inherit;top=0;left=0;bottom=0;right=0;collapsible=0;dropTarget=0;fillColor=none;points=[[0,0.5],[1,0.5]];portConstraint=eastwest;" parent="PBnWE2JTwn_oXoJihTIQ-16" vertex="1">
          <mxGeometry y="90" width="490" height="50" as="geometry" />
        </mxCell>
        <mxCell id="PBnWE2JTwn_oXoJihTIQ-28" value="street_name" style="shape=partialRectangle;html=1;whiteSpace=wrap;connectable=0;strokeColor=inherit;overflow=hidden;fillColor=none;top=0;left=0;bottom=0;right=0;pointerEvents=1;" parent="PBnWE2JTwn_oXoJihTIQ-27" vertex="1">
          <mxGeometry width="120" height="50" as="geometry">
            <mxRectangle width="120" height="50" as="alternateBounds" />
          </mxGeometry>
        </mxCell>
        <mxCell id="PBnWE2JTwn_oXoJihTIQ-29" value="str" style="shape=partialRectangle;html=1;whiteSpace=wrap;connectable=0;strokeColor=inherit;overflow=hidden;fillColor=none;top=0;left=0;bottom=0;right=0;pointerEvents=1;" parent="PBnWE2JTwn_oXoJihTIQ-27" vertex="1">
          <mxGeometry x="120" width="80" height="50" as="geometry">
            <mxRectangle width="80" height="50" as="alternateBounds" />
          </mxGeometry>
        </mxCell>
        <mxCell id="PBnWE2JTwn_oXoJihTIQ-30" value="Название улицы (body)" style="shape=partialRectangle;html=1;whiteSpace=wrap;connectable=0;strokeColor=inherit;overflow=hidden;fillColor=none;top=0;left=0;bottom=0;right=0;pointerEvents=1;" parent="PBnWE2JTwn_oXoJihTIQ-27" vertex="1">
          <mxGeometry x="200" width="130" height="50" as="geometry">
            <mxRectangle width="130" height="50" as="alternateBounds" />
          </mxGeometry>
        </mxCell>
        <mxCell id="PBnWE2JTwn_oXoJihTIQ-31" value="да" style="shape=partialRectangle;html=1;whiteSpace=wrap;connectable=0;strokeColor=inherit;overflow=hidden;fillColor=none;top=0;left=0;bottom=0;right=0;pointerEvents=1;" parent="PBnWE2JTwn_oXoJihTIQ-27" vertex="1">
          <mxGeometry x="330" width="160" height="50" as="geometry">
            <mxRectangle width="160" height="50" as="alternateBounds" />
          </mxGeometry>
        </mxCell>
        <mxCell id="PBnWE2JTwn_oXoJihTIQ-32" value="" style="shape=tableRow;horizontal=0;startSize=0;swimlaneHead=0;swimlaneBody=0;strokeColor=inherit;top=0;left=0;bottom=0;right=0;collapsible=0;dropTarget=0;fillColor=none;points=[[0,0.5],[1,0.5]];portConstraint=eastwest;" parent="PBnWE2JTwn_oXoJihTIQ-16" vertex="1">
          <mxGeometry y="140" width="490" height="50" as="geometry" />
        </mxCell>
        <mxCell id="PBnWE2JTwn_oXoJihTIQ-33" value="index_home" style="shape=partialRectangle;html=1;whiteSpace=wrap;connectable=0;strokeColor=inherit;overflow=hidden;fillColor=none;top=0;left=0;bottom=0;right=0;pointerEvents=1;" parent="PBnWE2JTwn_oXoJihTIQ-32" vertex="1">
          <mxGeometry width="120" height="50" as="geometry">
            <mxRectangle width="120" height="50" as="alternateBounds" />
          </mxGeometry>
        </mxCell>
        <mxCell id="PBnWE2JTwn_oXoJihTIQ-34" value="str" style="shape=partialRectangle;html=1;whiteSpace=wrap;connectable=0;strokeColor=inherit;overflow=hidden;fillColor=none;top=0;left=0;bottom=0;right=0;pointerEvents=1;" parent="PBnWE2JTwn_oXoJihTIQ-32" vertex="1">
          <mxGeometry x="120" width="80" height="50" as="geometry">
            <mxRectangle width="80" height="50" as="alternateBounds" />
          </mxGeometry>
        </mxCell>
        <mxCell id="PBnWE2JTwn_oXoJihTIQ-35" value="номер дома (body)" style="shape=partialRectangle;html=1;whiteSpace=wrap;connectable=0;strokeColor=inherit;overflow=hidden;fillColor=none;top=0;left=0;bottom=0;right=0;pointerEvents=1;" parent="PBnWE2JTwn_oXoJihTIQ-32" vertex="1">
          <mxGeometry x="200" width="130" height="50" as="geometry">
            <mxRectangle width="130" height="50" as="alternateBounds" />
          </mxGeometry>
        </mxCell>
        <mxCell id="PBnWE2JTwn_oXoJihTIQ-36" value="да" style="shape=partialRectangle;html=1;whiteSpace=wrap;connectable=0;strokeColor=inherit;overflow=hidden;fillColor=none;top=0;left=0;bottom=0;right=0;pointerEvents=1;" parent="PBnWE2JTwn_oXoJihTIQ-32" vertex="1">
          <mxGeometry x="330" width="160" height="50" as="geometry">
            <mxRectangle width="160" height="50" as="alternateBounds" />
          </mxGeometry>
        </mxCell>
        <mxCell id="PBnWE2JTwn_oXoJihTIQ-60" style="shape=tableRow;horizontal=0;startSize=0;swimlaneHead=0;swimlaneBody=0;strokeColor=inherit;top=0;left=0;bottom=0;right=0;collapsible=0;dropTarget=0;fillColor=none;points=[[0,0.5],[1,0.5]];portConstraint=eastwest;" parent="PBnWE2JTwn_oXoJihTIQ-16" vertex="1">
          <mxGeometry y="190" width="490" height="50" as="geometry" />
        </mxCell>
        <mxCell id="PBnWE2JTwn_oXoJihTIQ-61" value="code" style="shape=partialRectangle;html=1;whiteSpace=wrap;connectable=0;strokeColor=inherit;overflow=hidden;fillColor=none;top=0;left=0;bottom=0;right=0;pointerEvents=1;" parent="PBnWE2JTwn_oXoJihTIQ-60" vertex="1">
          <mxGeometry width="120" height="50" as="geometry">
            <mxRectangle width="120" height="50" as="alternateBounds" />
          </mxGeometry>
        </mxCell>
        <mxCell id="PBnWE2JTwn_oXoJihTIQ-62" value="int" style="shape=partialRectangle;html=1;whiteSpace=wrap;connectable=0;strokeColor=inherit;overflow=hidden;fillColor=none;top=0;left=0;bottom=0;right=0;pointerEvents=1;" parent="PBnWE2JTwn_oXoJihTIQ-60" vertex="1">
          <mxGeometry x="120" width="80" height="50" as="geometry">
            <mxRectangle width="80" height="50" as="alternateBounds" />
          </mxGeometry>
        </mxCell>
        <mxCell id="PBnWE2JTwn_oXoJihTIQ-63" value="статус операции (body)" style="shape=partialRectangle;html=1;whiteSpace=wrap;connectable=0;strokeColor=inherit;overflow=hidden;fillColor=none;top=0;left=0;bottom=0;right=0;pointerEvents=1;" parent="PBnWE2JTwn_oXoJihTIQ-60" vertex="1">
          <mxGeometry x="200" width="130" height="50" as="geometry">
            <mxRectangle width="130" height="50" as="alternateBounds" />
          </mxGeometry>
        </mxCell>
        <mxCell id="PBnWE2JTwn_oXoJihTIQ-64" value="да" style="shape=partialRectangle;html=1;whiteSpace=wrap;connectable=0;strokeColor=inherit;overflow=hidden;fillColor=none;top=0;left=0;bottom=0;right=0;pointerEvents=1;" parent="PBnWE2JTwn_oXoJihTIQ-60" vertex="1">
          <mxGeometry x="330" width="160" height="50" as="geometry">
            <mxRectangle width="160" height="50" as="alternateBounds" />
          </mxGeometry>
        </mxCell>
        <mxCell id="PBnWE2JTwn_oXoJihTIQ-65" style="shape=tableRow;horizontal=0;startSize=0;swimlaneHead=0;swimlaneBody=0;strokeColor=inherit;top=0;left=0;bottom=0;right=0;collapsible=0;dropTarget=0;fillColor=none;points=[[0,0.5],[1,0.5]];portConstraint=eastwest;" parent="PBnWE2JTwn_oXoJihTIQ-16" vertex="1">
          <mxGeometry y="240" width="490" height="50" as="geometry" />
        </mxCell>
        <mxCell id="PBnWE2JTwn_oXoJihTIQ-66" value="postamat_id" style="shape=partialRectangle;html=1;whiteSpace=wrap;connectable=0;strokeColor=inherit;overflow=hidden;fillColor=none;top=0;left=0;bottom=0;right=0;pointerEvents=1;" parent="PBnWE2JTwn_oXoJihTIQ-65" vertex="1">
          <mxGeometry width="120" height="50" as="geometry">
            <mxRectangle width="120" height="50" as="alternateBounds" />
          </mxGeometry>
        </mxCell>
        <mxCell id="PBnWE2JTwn_oXoJihTIQ-67" value="int" style="shape=partialRectangle;html=1;whiteSpace=wrap;connectable=0;strokeColor=inherit;overflow=hidden;fillColor=none;top=0;left=0;bottom=0;right=0;pointerEvents=1;" parent="PBnWE2JTwn_oXoJihTIQ-65" vertex="1">
          <mxGeometry x="120" width="80" height="50" as="geometry">
            <mxRectangle width="80" height="50" as="alternateBounds" />
          </mxGeometry>
        </mxCell>
        <mxCell id="PBnWE2JTwn_oXoJihTIQ-68" value="идентификатор постамата (body)" style="shape=partialRectangle;html=1;whiteSpace=wrap;connectable=0;strokeColor=inherit;overflow=hidden;fillColor=none;top=0;left=0;bottom=0;right=0;pointerEvents=1;" parent="PBnWE2JTwn_oXoJihTIQ-65" vertex="1">
          <mxGeometry x="200" width="130" height="50" as="geometry">
            <mxRectangle width="130" height="50" as="alternateBounds" />
          </mxGeometry>
        </mxCell>
        <mxCell id="PBnWE2JTwn_oXoJihTIQ-69" value="да" style="shape=partialRectangle;html=1;whiteSpace=wrap;connectable=0;strokeColor=inherit;overflow=hidden;fillColor=none;top=0;left=0;bottom=0;right=0;pointerEvents=1;" parent="PBnWE2JTwn_oXoJihTIQ-65" vertex="1">
          <mxGeometry x="330" width="160" height="50" as="geometry">
            <mxRectangle width="160" height="50" as="alternateBounds" />
          </mxGeometry>
        </mxCell>
        <mxCell id="xH_uLiZytQNko_tvL0au-5" style="shape=tableRow;horizontal=0;startSize=0;swimlaneHead=0;swimlaneBody=0;strokeColor=inherit;top=0;left=0;bottom=0;right=0;collapsible=0;dropTarget=0;fillColor=none;points=[[0,0.5],[1,0.5]];portConstraint=eastwest;" vertex="1" parent="PBnWE2JTwn_oXoJihTIQ-16">
          <mxGeometry y="290" width="490" height="50" as="geometry" />
        </mxCell>
        <mxCell id="xH_uLiZytQNko_tvL0au-6" value="description" style="shape=partialRectangle;html=1;whiteSpace=wrap;connectable=0;strokeColor=inherit;overflow=hidden;fillColor=none;top=0;left=0;bottom=0;right=0;pointerEvents=1;" vertex="1" parent="xH_uLiZytQNko_tvL0au-5">
          <mxGeometry width="120" height="50" as="geometry">
            <mxRectangle width="120" height="50" as="alternateBounds" />
          </mxGeometry>
        </mxCell>
        <mxCell id="xH_uLiZytQNko_tvL0au-7" value="str" style="shape=partialRectangle;html=1;whiteSpace=wrap;connectable=0;strokeColor=inherit;overflow=hidden;fillColor=none;top=0;left=0;bottom=0;right=0;pointerEvents=1;" vertex="1" parent="xH_uLiZytQNko_tvL0au-5">
          <mxGeometry x="120" width="80" height="50" as="geometry">
            <mxRectangle width="80" height="50" as="alternateBounds" />
          </mxGeometry>
        </mxCell>
        <mxCell id="xH_uLiZytQNko_tvL0au-8" value="Ответ запроса" style="shape=partialRectangle;html=1;whiteSpace=wrap;connectable=0;strokeColor=inherit;overflow=hidden;fillColor=none;top=0;left=0;bottom=0;right=0;pointerEvents=1;" vertex="1" parent="xH_uLiZytQNko_tvL0au-5">
          <mxGeometry x="200" width="130" height="50" as="geometry">
            <mxRectangle width="130" height="50" as="alternateBounds" />
          </mxGeometry>
        </mxCell>
        <mxCell id="xH_uLiZytQNko_tvL0au-9" value="да" style="shape=partialRectangle;html=1;whiteSpace=wrap;connectable=0;strokeColor=inherit;overflow=hidden;fillColor=none;top=0;left=0;bottom=0;right=0;pointerEvents=1;" vertex="1" parent="xH_uLiZytQNko_tvL0au-5">
          <mxGeometry x="330" width="160" height="50" as="geometry">
            <mxRectangle width="160" height="50" as="alternateBounds" />
          </mxGeometry>
        </mxCell>
      </root>
    </mxGraphModel>
  </diagram>
</mxfile>
